# xmcd
#
# Track frame offsets:
#	150
#	22088
#	39904
#	58119
#	81035
#	98436
#	117930
#	140010
#	161992
#
# Disc length: 2362
#
# Revision: 1
# Processed by: cddbd v1.5.1PL0 Copyright (c) Steve Scherf et al.
# Submitted via: dBpowerAMP V4.0
# Normalized: r0:TRMNUM
#
DISCID=72093809
DTITLE=Big and Rich - Save A horse (Ride a cowboy)
DYEAR=1900
DGENRE=
TTITLE0=Rollin' (The Ballad Of Big and Rich) 
TTITLE1=Wild West Show 
TTITLE2=Big Time 
TTITLE3=Kick My Ass 
TTITLE4=Six Foot Town 
TTITLE5=Holy Water 
TTITLE6=Saved 
TTITLE7=Real World 
TTITLE8=Save A Horse (Ride A Cowboy) 
EXTD=
EXTT0=
EXTT1=
EXTT2=
EXTT3=
EXTT4=
EXTT5=
EXTT6=
EXTT7=
EXTT8=
PLAYORDER=
